<svg id="visual" viewBox="0 0 900 600" width="900" height="600" xmlns="http://www.w3.org/2000/svg" xmlns:xlink="http://www.w3.org/1999/xlink" version="1.1"><rect x="0" y="0" width="900" height="600" fill="#001220"></rect><path d="M0 530L21.5 526.7C43 523.3 86 516.7 128.8 516.5C171.7 516.3 214.3 522.7 257.2 524.3C300 526 343 523 385.8 524.2C428.7 525.3 471.3 530.7 514.2 533.7C557 536.7 600 537.3 642.8 533.5C685.7 529.7 728.3 521.3 771.2 521.2C814 521 857 529 878.5 533L900 537L900 601L878.5 601C857 601 814 601 771.2 601C728.3 601 685.7 601 642.8 601C600 601 557 601 514.2 601C471.3 601 428.7 601 385.8 601C343 601 300 601 257.2 601C214.3 601 171.7 601 128.8 601C86 601 43 601 21.5 601L0 601Z" fill="#fa7268"></path><path d="M0 532L21.5 534.8C43 537.7 86 543.3 128.8 541.5C171.7 539.7 214.3 530.3 257.2 530.7C300 531 343 541 385.8 542.5C428.7 544 471.3 537 514.2 535.8C557 534.7 600 539.3 642.8 538.5C685.7 537.7 728.3 531.3 771.2 530C814 528.7 857 532.3 878.5 534.2L900 536L900 601L878.5 601C857 601 814 601 771.2 601C728.3 601 685.7 601 642.8 601C600 601 557 601 514.2 601C471.3 601 428.7 601 385.8 601C343 601 300 601 257.2 601C214.3 601 171.7 601 128.8 601C86 601 43 601 21.5 601L0 601Z" fill="#ef5f67"></path><path d="M0 544L21.5 544.3C43 544.7 86 545.3 128.8 543.7C171.7 542 214.3 538 257.2 540.5C300 543 343 552 385.8 556.3C428.7 560.7 471.3 560.3 514.2 559.2C557 558 600 556 642.8 552.3C685.7 548.7 728.3 543.3 771.2 540.7C814 538 857 538 878.5 538L900 538L900 601L878.5 601C857 601 814 601 771.2 601C728.3 601 685.7 601 642.8 601C600 601 557 601 514.2 601C471.3 601 428.7 601 385.8 601C343 601 300 601 257.2 601C214.3 601 171.7 601 128.8 601C86 601 43 601 21.5 601L0 601Z" fill="#e34c67"></path><path d="M0 556L21.5 557.3C43 558.7 86 561.3 128.8 563C171.7 564.7 214.3 565.3 257.2 566C300 566.7 343 567.3 385.8 567.5C428.7 567.7 471.3 567.3 514.2 566.3C557 565.3 600 563.7 642.8 564.7C685.7 565.7 728.3 569.3 771.2 571.2C814 573 857 573 878.5 573L900 573L900 601L878.5 601C857 601 814 601 771.2 601C728.3 601 685.7 601 642.8 601C600 601 557 601 514.2 601C471.3 601 428.7 601 385.8 601C343 601 300 601 257.2 601C214.3 601 171.7 601 128.8 601C86 601 43 601 21.5 601L0 601Z" fill="#d53867"></path><path d="M0 576L21.5 577.8C43 579.7 86 583.3 128.8 583C171.7 582.7 214.3 578.3 257.2 577.7C300 577 343 580 385.8 580C428.7 580 471.3 577 514.2 575C557 573 600 572 642.8 573.5C685.7 575 728.3 579 771.2 582C814 585 857 587 878.5 588L900 589L900 601L878.5 601C857 601 814 601 771.2 601C728.3 601 685.7 601 642.8 601C600 601 557 601 514.2 601C471.3 601 428.7 601 385.8 601C343 601 300 601 257.2 601C214.3 601 171.7 601 128.8 601C86 601 43 601 21.5 601L0 601Z" fill="#c62368"></path></svg>